<svg width="20" height="20" viewBox="0 0 20 20" fill="none" xmlns="http://www.w3.org/2000/svg">
<path d="M9.59667 1.67672C5.17167 1.88505 1.68083 5.54339 1.69417 9.94089C1.69636 11.2353 2.00627 12.5106 2.59833 13.6617L1.71667 17.9126C1.70591 17.9657 1.70873 18.0207 1.72486 18.0725C1.74099 18.1242 1.76991 18.1711 1.80895 18.2087C1.848 18.2464 1.8959 18.2735 1.94822 18.2878C2.00055 18.302 2.05562 18.3028 2.10833 18.2901L6.30334 17.3034C7.4144 17.8524 8.63413 18.1463 9.87334 18.1634C14.3958 18.2326 18.1658 14.6676 18.3067 10.1801C18.4583 5.36755 14.4592 1.44589 9.59667 1.67589V1.67672ZM14.6025 14.4826C13.9979 15.085 13.2804 15.5622 12.491 15.8868C11.7017 16.2114 10.856 16.377 10.0025 16.3742C8.99835 16.3773 8.00724 16.1468 7.1075 15.7009L6.52334 15.4117L3.95084 16.0167L4.4925 13.4076L4.20417 12.8476C3.73675 11.9415 3.49436 10.9362 3.4975 9.91672C3.4975 8.19172 4.17417 6.56922 5.4025 5.35005C6.62683 4.13814 8.27979 3.45809 10.0025 3.45755C11.7408 3.45755 13.3742 4.12922 14.6025 5.34922C15.2077 5.94558 15.6879 6.65659 16.0152 7.44069C16.3424 8.22479 16.51 9.06625 16.5083 9.91589C16.5083 11.6259 15.8208 13.2742 14.6025 14.4834V14.4826Z" fill="#064E3B"/>
<path d="M14.035 11.7041L12.4258 11.2458C12.322 11.216 12.2121 11.2146 12.1075 11.2419C12.003 11.2692 11.9077 11.3241 11.8317 11.4008L11.4383 11.7991C11.357 11.8816 11.2531 11.9382 11.1397 11.9619C11.0263 11.9856 10.9084 11.9754 10.8008 11.9325C10.04 11.6266 8.43834 10.2133 8.02917 9.50579C7.97181 9.40586 7.94561 9.29108 7.95393 9.17616C7.96224 9.06124 8.00469 8.95142 8.07584 8.86079L8.41917 8.41912C8.48527 8.3345 8.52709 8.23349 8.54015 8.12691C8.55322 8.02033 8.53704 7.91221 8.49334 7.81412L7.81667 6.29412C7.7784 6.20917 7.72094 6.13424 7.64882 6.07525C7.5767 6.01625 7.49188 5.97478 7.40102 5.95411C7.31016 5.93343 7.21575 5.93411 7.1252 5.95609C7.03465 5.97807 6.95043 6.02076 6.87917 6.08079C6.43 6.45829 5.89667 7.03079 5.8325 7.66662C5.71834 8.78579 6.20167 10.1966 8.03 11.8916C10.1425 13.8491 11.835 14.1083 12.9358 13.8425C13.5608 13.6925 14.0608 13.09 14.375 12.5975C14.4253 12.5192 14.4564 12.4303 14.4661 12.3378C14.4757 12.2453 14.4635 12.1519 14.4304 12.065C14.3973 11.9781 14.3443 11.9002 14.2756 11.8375C14.207 11.7748 14.1245 11.7292 14.035 11.7041Z" fill="#064E3B"/>
</svg>
